<svg width="1920" height="63" viewBox="0 0 1920 63" fill="none" xmlns="http://www.w3.org/2000/svg">
<g clip-path="url(#clip0_89_3785)">
<g style="mix-blend-mode:color-dodge">
<path d="M0.844238 167.642C182.586 134.683 336.936 167.238 509.163 204.507C594.586 222.99 679.779 236.827 768.808 221.677C904.258 198.632 992.545 128.505 1106.38 81.2542C1291.25 4.54528 1373.62 175.369 1534.91 197.117C1604.73 206.544 1644.22 177.237 1705.93 163.08C1784.09 145.153 1856.24 177.439 1919.03 205.029" stroke="#666666" stroke-miterlimit="10"/>
<path d="M0.844238 144.395C177.189 106.908 312.587 149.041 474.533 190.805C561.977 213.344 650.418 231.625 743.591 212.991C881.726 185.368 971.752 110.123 1085.95 57.7886C1280.09 -31.1748 1343.83 158.923 1510.58 181.277C1581.56 190.788 1625.37 158.266 1686.14 142.392C1771.97 119.971 1850.77 158.131 1919.03 189.492" stroke="#666666" stroke-miterlimit="10"/>
<path d="M0.844238 121.57C79.8478 101.757 156.959 97.1952 238.673 113.187C314.122 127.949 378.906 157.761 450.109 178.853C534.202 203.766 620.597 225.616 712.618 205.769C858.784 174.241 946.765 88.6271 1066.05 31.8319C1259.2 -60.1447 1315.39 135.912 1473.96 162.356C1554.24 175.739 1600.76 136.938 1669.03 119.196C1761.28 95.2089 1847.47 139.985 1919.03 173.904" stroke="#666666" stroke-miterlimit="10"/>
<path d="M0.844238 99.535C71.9449 78.342 142.79 71.7434 217.88 88.3072C291.846 104.619 351.923 138.958 420.057 162.727C499.316 190.384 580.878 218.142 672.081 200.433C824.998 170.773 920.984 74.6218 1039.66 12.4063C1242.01 -93.6933 1275.59 119.667 1441.37 144.227C1526.44 156.835 1579.41 111.84 1652.45 94.2998C1750.71 70.7165 1844.96 122.243 1919 158.3" stroke="#666666" stroke-miterlimit="10"/>
<path d="M0.844238 78.6114C165.169 20.5368 263.866 89.2331 397.704 144.749C473.715 176.278 555.558 212.755 648.705 192.454C799.551 159.579 898.785 60.7345 1013.13 -4.99911C1086.95 -47.4188 1157.61 -57.2662 1220.83 -3.60198C1275.67 42.925 1310.89 109.938 1408.46 123.421C1493.42 135.154 1553.42 89.0985 1626.31 70.3295C1733.58 42.6893 1839.77 103.121 1919.03 142.729" stroke="#666666" stroke-miterlimit="10"/>
<path d="M0.844238 59.1522C160.002 -6.68247 259.185 61.6772 384.711 123.724C451.669 156.818 527.475 202.655 617.937 187.118C673.002 177.658 721.826 150.775 763.872 127.041C844.692 81.4394 911.777 27.6404 988.504 -20.5362C1062.06 -66.7265 1134.57 -84.9064 1197.64 -23.9702C1244.65 21.4458 1280.71 91.6066 1375.21 101.521C1465.06 110.948 1530.81 60.2127 1609.61 42.6725C1723.27 17.3553 1837.85 85.3951 1919.03 127.108" stroke="#666666" stroke-miterlimit="10"/>
<path d="M0.844238 41.511C62.8911 12.137 131.357 -6.29535 206.96 11.5983C274.275 27.5394 326.603 64.5725 378.343 95.4277C436.656 130.205 510.314 191.949 599.829 179.813C650.213 172.978 694.536 147.594 732.184 125.98C815.28 78.2579 888.119 22.9776 962.826 -30.1985C1032.75 -79.9911 1110.25 -115.812 1175.46 -46.5099C1219.38 0.134952 1253.47 73.9149 1353.06 76.5072C1441.45 78.8133 1507.87 32.3537 1587.54 15.2175C1709.74 -11.0592 1833.71 66.1716 1919.05 111.537" stroke="#666666" stroke-miterlimit="10"/>
<path d="M0.844238 25.3174C64.5279 -7.33905 135.475 -29.0202 215.911 -10.2007C283.789 5.67305 340.005 41.8644 390.184 74.403C442.359 108.255 512.386 174.746 597.809 163.4C645.61 157.054 687.656 131.619 722.9 110.982C803.489 63.7644 875.459 9.93184 948.274 -42.3016C1014.95 -90.1247 1093.26 -133.723 1159.4 -64.7403C1202.68 -19.6105 1235.54 52.4188 1333.27 53.311C1420.89 54.1021 1493.96 12.238 1575.78 -2.10389C1703.12 -24.4416 1827.57 48.7829 1919.03 95.5623" stroke="#666666" stroke-miterlimit="10"/>
<path d="M0.844238 7.27226C71.1009 -29.1043 146.064 -48.6645 231.947 -23.4146C302.971 -2.52464 365.171 36.9997 420.134 71.9959C469.444 103.407 530.544 156.414 608.295 139.901C655.738 129.818 696.992 102.885 732.388 81.2374C803.336 37.8582 869.27 -9.12327 936.202 -55.1452C999.988 -99.0294 1077.38 -141.718 1145.95 -80.5297C1194.72 -36.999 1225.77 32.6231 1323.14 35.8046C1409.87 38.6325 1493.73 0.976648 1577.34 -9.12327C1703.78 -24.4078 1821.38 32.9598 1919.05 77.1638" stroke="#666666" stroke-miterlimit="10"/>
<path d="M0.844238 -12.7761C76.3951 -50.7181 153.378 -67.3999 241.64 -37.4368C309.263 -14.4931 371.668 22.4558 427.295 56.1727C479.137 87.6003 542.795 141.753 621.134 117.782C662.03 105.275 695.687 81.4562 727.81 61.3068C795.382 18.8871 859.296 -26.0912 925.281 -69.5545C993.543 -114.516 1070.88 -149.378 1141.7 -89.6029C1190.45 -48.4457 1225.57 16.3453 1318 19.0387C1403.04 21.53 1487.51 -5.28532 1570.51 -14.2069C1698.62 -27.9765 1812.35 15.0155 1919.05 56.442" stroke="#666666" stroke-miterlimit="10"/>
<path d="M0.844238 -34.4572C87.9809 -75.8333 171.102 -85.1926 263.891 -46.695C330.567 -19.0381 392.205 18.4327 451.873 52.2169C501.695 80.4294 557.731 124.718 627.451 99.0637C664.792 85.3278 695.866 60.8355 725.611 41.0228C788.937 -1.178 850.6 -44.4057 915.767 -85.3945C983.287 -127.865 1060.58 -158.518 1132.45 -104.854C1186.1 -64.7907 1223.26 -0.891825 1315.47 4.8988C1396.72 9.99926 1485.26 -10.9076 1565.19 -19.0549C1692.91 -32.0669 1805.29 -2.35633 1919 33.9192" stroke="#666666" stroke-miterlimit="10"/>
<path d="M0.844238 -57.3674C95.2445 -99.1642 182.049 -103.642 276.654 -59.9092C348.036 -26.9161 412.18 14.7797 480.058 50.9374C526.734 75.7832 578.371 109.854 636.709 81.3046C675.278 62.4345 706.762 34.0033 738.782 10.8408C792.926 -28.2964 848.426 -66.9118 907.992 -102.497C980.985 -146.112 1060.14 -166.716 1133.65 -114.146C1187.46 -75.6651 1228.69 -15.6042 1317.1 -9.08977C1400.79 -2.92882 1491.27 -17.3885 1574.16 -24.8793C1696.06 -35.8882 1804.55 -17.9608 1919.03 9.93178" stroke="#666666" stroke-miterlimit="10"/>
<path d="M0.844238 -81.1526C108.467 -125.441 199.952 -120.727 298.751 -68.8138C373.714 -29.4241 437.602 16.4127 515.736 53.5804C569.343 79.0659 607.988 93.4582 656.914 57.9402C740.061 -2.42368 807.402 -71.221 904.82 -123.269C976.33 -161.464 1055 -175.705 1126.26 -131.248C1186.46 -93.6933 1226.97 -36.0395 1313.88 -22.5057C1394.11 -10.0322 1494.8 -22.3373 1575.47 -29.5756C1694.52 -40.2647 1801.97 -33.9859 1919.05 -14.9981" stroke="#666666" stroke-miterlimit="10"/>
<path d="M0.844238 -105.409C121.357 -151.684 219.492 -136.652 321.104 -77.4157C393.893 -34.9792 454.431 14.157 537.041 49.0185C597.681 74.6218 629.599 79.1499 671.083 38.3799C736.813 -26.2091 802.978 -92.2289 898.733 -139.867C976.151 -178.398 1054.59 -187.05 1130.25 -142.628C1193.24 -105.628 1238.07 -46.1059 1327.15 -33.0097C1406.16 -21.3948 1498.36 -26.9161 1578 -34.0533C1693.63 -44.4226 1802.25 -49.1022 1919.05 -40.5341" stroke="#666666" stroke-miterlimit="10"/>
<path d="M0.844238 -129.75C132.201 -177.472 234.965 -153.956 339.084 -88.6602C412.768 -42.4531 473.51 13.9887 564.228 46.7461C631.569 71.0701 655.201 58.4284 687.324 16.7325C738.424 -49.5735 803.054 -116.586 897.71 -159.78C977.839 -196.359 1058.89 -197.487 1134.16 -155.454C1199.81 -118.775 1247.64 -60.8013 1335.59 -44.5404C1524.24 -9.662 1729.54 -61.7944 1919.05 -66.1205" stroke="#666666" stroke-miterlimit="10"/>
<path d="M0.844238 -153.805C66.1904 -176.715 127.623 -190.316 200.745 -173.634C261.231 -159.831 310.772 -130.861 355.146 -101.352C428.344 -52.6372 490.927 12.9113 588.448 41.8644C661.595 63.5792 678.91 34.3231 703.59 -6.49738C743.821 -73.0895 804.563 -141.315 899.475 -180.3C1106.33 -265.291 1180.99 -93.323 1345.57 -56.0375C1537.77 -12.49 1731.1 -67.4336 1919.05 -91.3872" stroke="#666666" stroke-miterlimit="10"/>
<path d="M0.844238 -177.186C69.0037 -200.921 131.818 -214.152 206.269 -196.123C268.725 -181.007 319.212 -150.118 364.455 -118.825C435.607 -69.6219 509.189 15.5542 615.328 35.148C689.626 48.8671 701.339 3.11443 720.163 -33.7166C753.105 -98.1878 809.883 -169.274 904.872 -203.378C1102.06 -274.179 1201.37 -114.987 1350.25 -69.9922C1545.57 -10.9582 1734.7 -71.4903 1919.03 -115.896" stroke="#666666" stroke-miterlimit="10"/>
<path d="M0.844238 -199.49C69.6687 -224.134 131.664 -237.516 207.42 -220.06C270.234 -205.584 321.565 -173.281 366.22 -141.803C438.676 -90.7138 516.35 6.32962 629.011 20.8062C705.585 30.6536 716.327 -19.6945 733.053 -57.5019C761.775 -122.36 813.489 -194.154 912.749 -224.319C1110.22 -284.329 1216.72 -131.501 1362.37 -82.0784C1438.2 -56.3572 1536.39 -43.1768 1620.87 -52.1321C1727.95 -63.4777 1825.88 -105.241 1919.05 -139.126" stroke="#666666" stroke-miterlimit="10"/>
<path d="M0.844238 -220.363C74.1444 -248.256 144.989 -264.332 226.141 -240.226C287.037 -222.131 335.35 -188.868 379.008 -156.582C444.431 -108.204 526.887 -6.27849 636.94 1.36379C719.78 7.12074 730.24 -52.4183 747.99 -92.616C775.433 -154.747 824.845 -221.356 924.309 -245.327C1120.3 -292.578 1233.62 -150.893 1375.03 -95.5281C1446.49 -67.5513 1539.89 -48.3952 1623.47 -55.2463C1735.45 -64.4372 1832.35 -117.765 1919 -160.774" stroke="#666666" stroke-miterlimit="10"/>
</g>
</g>
<defs>
<clipPath id="clip0_89_3785">
<rect width="1920" height="844" fill="white" transform="translate(0 -529)"/>
</clipPath>
</defs>
</svg>
